<?xml version="1.0" encoding="utf-8"?>
<!-- Generator: Adobe Illustrator 27.5.0, SVG Export Plug-In . SVG Version: 6.00 Build 0)  -->
<svg version="1.1" xmlns="http://www.w3.org/2000/svg" xmlns:xlink="http://www.w3.org/1999/xlink" x="0px" y="0px"
	 viewBox="0 0 750 500" style="enable-background:new 0 0 750 500;" xml:space="preserve">

<g id="OBJECTS">
	<path style="opacity:0.11;fill:#1C0C00;" d="M639.375,326.221c-10.654-0.051-21.562,0.674-32.318,0.674
		c-35.794,0-71.588,0-107.382,0c-45.527,0-91.055,0-136.582,0c-39.139,0-78.278,0-117.417,0c-16.63,0-33.259,0-49.889,0
		c-4.393,0-14.01-4.229-14.931-9.316c-1.04-5.745,7.438-7.98,11.778-8.166c85.5-3.663,171.088-1.298,256.614-0.146
		c34.398,0.463,68.796-0.251,103.19-0.781c17.181-0.265,34.364-0.488,51.547-0.492c15.637-0.005,30.968-1.942,45.906,3.189
		c3.214,1.104,6.774,2.827,7.6,6.124c0.707,2.819-1.035,5.831-3.513,7.349c-2.478,1.518-5.518,1.807-8.423,1.695
		C643.507,326.27,641.446,326.231,639.375,326.221z"/>
	<path style="opacity:0.12;fill:#1C0C00;" d="M230.914,371.037c-3.554-0.038-7.194,0.512-10.782,0.512c-11.942,0-23.884,0-35.826,0
		c-15.189,0-30.378,0-45.567,0c-13.058,0-26.116,0-39.174,0c-5.548,0-11.096,0-16.644,0c-1.465,0-4.674-3.215-4.981-7.083
		c-0.347-4.368,2.482-6.067,3.929-6.209c28.525-2.785,57.08-0.987,85.614-0.111c11.476,0.352,22.952-0.191,34.427-0.594
		c5.732-0.201,11.465-0.371,17.198-0.374c5.217-0.004,10.332-1.477,15.316,2.424c1.072,0.839,2.26,2.15,2.536,4.656
		c0.236,2.143-0.345,4.433-1.172,5.587c-0.827,1.154-1.841,1.374-2.81,1.289C232.292,371.074,231.605,371.045,230.914,371.037z"/>
	<g>
		<path style="fill:#006C80;" d="M645.121,305.999H371.185V163.062c0-6.551,5.31-11.861,11.861-11.861h125.881
			c3.135,0,6.144-1.242,8.366-3.453l12.186-12.126c2.223-2.212,5.231-3.453,8.366-3.453h95.414c6.551,0,11.861,5.31,11.861,11.861
			V305.999z"/>
		<rect x="371.42" y="170.528" style="fill:#5B8CA8;" width="273.701" height="148.115"/>
	</g>
	<g>
		<g>
			<path style="fill:#D6A447;" d="M150.556,365.975H93.593V54.108c0-2.258,1.83-4.088,4.088-4.088h48.787
				c2.258,0,4.088,1.83,4.088,4.088V365.975z"/>

				<ellipse transform="matrix(0.3827 -0.9239 0.9239 0.3827 -5.4571 166.7817)" style="fill:#FFFFFF;" cx="122.075" cy="87.474" rx="20.16" ry="20.16"/>
		</g>
		<g>
			<path style="fill:#993333;" d="M202.923,365.975h-52.782V37.082c0-1.859,1.507-3.366,3.366-3.366h46.049
				c1.859,0,3.366,1.507,3.366,3.366V365.975z"/>

				<ellipse transform="matrix(0.7071 -0.7071 0.7071 0.7071 -10.1487 150.4477)" style="fill:#FFFFFF;" cx="176.532" cy="87.474" rx="20.16" ry="20.16"/>
		</g>
		<g>
			<path style="fill:#74ADC5;" d="M264.241,365.975h-61.733V45.446c0-2.14,1.735-3.875,3.876-3.875h53.982
				c2.14,0,3.876,1.735,3.876,3.875V365.975z"/>

				<ellipse transform="matrix(0.2385 -0.9711 0.9711 0.2385 92.7562 293.2458)" style="fill:#FFFFFF;" cx="233.374" cy="87.474" rx="20.16" ry="20.16"/>
		</g>
	</g>
	<g>
		<path style="opacity:0.12;fill:#1C0C00;" d="M528.311,388.091c-1.664,2.713,3.185,4.313,5.138,4.64
			c7.292,1.222,14.695,1.772,22.087,1.645c4.783-0.082,9.547-0.69,14.295-1.224c1.406-0.158,2.849-0.328,4.098-0.992
			c1.249-0.664,2.274-1.947,2.206-3.36c-0.059-1.207-0.904-2.267-1.939-2.891c-1.035-0.624-2.244-0.882-3.434-1.097
			c-12.517-2.262-25.389-0.815-37.964,1.101c-1.485,0.226-3.095,0.525-4.091,1.65C528.548,387.743,528.417,387.919,528.311,388.091z
			"/>
		<path style="opacity:0.12;fill:#1C0C00;" d="M516.113,459.202c-2.287,2.804,4.376,4.456,7.06,4.794
			c10.02,1.263,20.194,1.831,30.352,1.7c6.573-0.085,13.119-0.712,19.644-1.265c1.932-0.163,3.916-0.339,5.632-1.025
			c1.716-0.686,3.125-2.012,3.031-3.472c-0.081-1.247-1.242-2.343-2.664-2.988c-1.422-0.645-3.084-0.911-4.718-1.133
			c-17.201-2.337-34.89-0.842-52.17,1.138c-2.041,0.234-4.253,0.543-5.621,1.705C516.438,458.842,516.257,459.025,516.113,459.202z"
			/>
		<path style="opacity:0.12;fill:#1C0C00;" d="M415.119,427.563c-3.614,2.687,6.916,4.27,11.158,4.594
			c15.836,1.211,31.915,1.754,47.969,1.629c10.388-0.081,20.734-0.683,31.045-1.212c3.053-0.157,6.188-0.325,8.9-0.983
			c2.712-0.658,4.939-1.928,4.79-3.327c-0.128-1.195-1.963-2.245-4.21-2.863c-2.248-0.618-4.874-0.873-7.457-1.086
			c-27.185-2.24-55.141-0.807-82.45,1.09c-3.225,0.224-6.722,0.52-8.884,1.634C415.634,427.218,415.348,427.393,415.119,427.563z"/>
		<path style="opacity:0.12;fill:#1C0C00;" d="M592.27,452.426c-3.614,2.687,6.916,4.27,11.158,4.594
			c15.836,1.211,31.915,1.755,47.969,1.629c10.388-0.081,20.734-0.683,31.045-1.212c3.053-0.157,6.188-0.325,8.9-0.983
			c2.712-0.658,4.939-1.928,4.79-3.327c-0.128-1.195-1.963-2.245-4.21-2.863c-2.248-0.618-4.874-0.873-7.457-1.086
			c-27.185-2.24-55.141-0.807-82.45,1.09c-3.225,0.224-6.722,0.52-8.884,1.634C592.784,452.081,592.499,452.256,592.27,452.426z"/>
		<path style="opacity:0.12;fill:#1C0C00;" d="M54.602,418.239c-3.614,2.687,6.916,4.27,11.158,4.594
			c15.836,1.211,31.915,1.754,47.969,1.629c10.388-0.081,20.734-0.683,31.045-1.212c3.053-0.157,6.189-0.325,8.9-0.983
			c2.712-0.658,4.939-1.928,4.79-3.327c-0.127-1.195-1.962-2.245-4.21-2.863c-2.248-0.618-4.874-0.873-7.457-1.086
			c-27.185-2.24-55.14-0.807-82.45,1.09c-3.225,0.224-6.722,0.52-8.884,1.634C55.116,417.895,54.831,418.069,54.602,418.239z"/>
		<path style="opacity:0.12;fill:#1C0C00;" d="M96.886,446.727c-0.608,2.631,4.584,3.505,6.504,3.577
			c3.974,0.149,7.965-0.163,11.935,0.067c11.566,0.669,23.147,1.058,34.73,1.279c27.476,0.525,54.958,0.125,82.43-0.382
			c13.447-0.248,26.854-0.724,40.249-0.004c13.747,0.74,27.621,0.654,41.207-1.8c1.215-0.219,2.492-0.489,3.406-1.319
			c0.914-0.83,1.26-2.412,0.391-3.289c-0.505-0.509-1.26-0.653-1.966-0.773c-7.967-1.351-16.325-1.431-24.44-1.732
			c-56.426-2.132-112.92-0.95-169.34,0.787c-6.721,0.207-13.711-0.803-20.349,0.271c-1.278,0.207-2.622,0.52-3.54,1.434
			C97.391,445.554,97.013,446.178,96.886,446.727z"/>
	</g>
	<g>
		<path style="fill:#C5C5C5;" d="M632.277,169.945c2.395-5.226,2.785-12.202,1.3-16.436c-2.316-6.598-9.624-10.279-16.592-10.857
			c-6.97-0.578-13.881,1.248-20.801,2.262c-11.408,1.672-24.248,0.061-25.568-13.754c-1.17-12.257,19.37-41.308-1.419-45.909
			c-2.984-0.66-13.741-0.126-16.783,0.189c-0.991,0.102-1.979,0.233-2.96,0.377c-17.77,2.601-34.891,9.449-49.601,19.743
			c-22.277,15.589-36.644,35.689-53.944,55.994c-1.79,2.101-5.655,5.083-8.769,8.39H632.277z"/>
		<path style="fill:#ECECEC;" d="M310.066,86.55c-9.14,0-36.012,14.071-43.286,19.313c-11.156,8.04-21.255,17.535-30.038,28.112
			c-18.917,22.78-29.316,48.536-35.133,77.16c-7.47,36.756,0.018,74.605-6.447,111.529c-6.41,36.606-45.473,63.313-67.226,81.671
			h257.492c23.209-13.209,48.072-31.856,60.298-70.57c9.975-31.585,0.434-73.774,3.968-106.212
			c6.188-56.792,42.245-116.972,93.704-137.202c3.887-1.528,8.052-2.848,11.986-3.799C555.384,86.55,310.082,86.55,310.066,86.55z"
			/>
	</g>
	<g>
		<polygon style="fill:#FCCFD0;" points="117.872,408.957 114.742,380.639 132.098,378.257 131.593,408.812 		"/>
		<path style="fill:#1C0C00;" d="M116.04,416.558c0.068-2.092-0.893-9.724,1.294-10.906c0.309-0.167,0.661-0.246,1.009-0.32
			c4.541-0.966,9.226-1.341,13.877-1.109c1.106,5.218,6.644,4.41,11.494,5.842c1.642,0.485,3.313,0.983,4.718,1.914
			c2.102,1.393,3.402,3.628,4.203,5.917"/>
		<path style="fill:#1C0C00;" d="M133.802,371.357c0.532,13.142,0.736,24.21-0.094,24.349c-6.062,1.014-12.125,2.027-18.187,3.041
			c-6.505-19.127-9.873-27.982-9.965-48.184c-0.084-18.547-1.159-37.866-5.474-56.056c-2.121-8.942-4.816-17.814-5.914-26.884
			c-1.058-8.738,2.787-19.746,13.691-19.203c4.215,0.21,8.019,2.576,11.267,5.271c2.626,2.178,5.1,4.721,6.312,7.91
			c0.796,2.095,1.004,4.36,1.201,6.592c2.107,23.853,3.757,47.747,4.947,71.664C131.753,343.206,133.08,353.525,133.802,371.357z"/>
		<polygon style="fill:#FCCFD0;" points="61.111,403.804 65.518,375.128 82.78,376.011 74.304,406.228 		"/>
		<path style="fill:#993333;" d="M126.16,263.892c-0.431-19.22-25.631-24.488-37.528-11.394c-3.464,3.813-5.289,8.718-5.642,13.673
			c-0.419,5.885,2.433,10.979,2.817,16.842c0.454,6.925-0.841,13.878-2.444,20.585c-4.203,17.588-11.192,34.259-15.79,51.684
			c-4.524,17.144-6.741,24.375-6.556,41.342c6.23,0.364,12.436,1.158,18.647,1.849c3.493-5.948,9.551-22.422,10.41-24.659
			c3.102-8.088,23.773-53.249,30.122-73.786C123.847,288.213,126.436,276.218,126.16,263.892z"/>
		<path style="fill:#FCCFD0;" d="M113.184,167.014c0.049,2.711,0.099,5.422,0.149,8.133c0.116,6.345-5.226,10.051-11.331,7.204
			c-1.903-0.887-3.47-2.357-4.886-3.907c-0.426-0.466-0.852-0.96-1.042-1.562c-0.218-0.69-0.1-1.438,0.056-2.145
			c0.477-2.169,1.286-4.267,1.578-6.469c0.341-2.571-0.036-5.179-0.449-7.74c-1.127-6.984-6.332-16.711,0.14-22.071
			c2.164-1.793,4.838-2.884,7.569-3.547c1.545-0.375,3.152-0.622,4.724-0.384c4.278,0.649,6.144,0.464,7.719,4.494
			c1.63,4.17,2.537,17.354-2.153,19.727c-0.455,0.23-0.95,0.407-1.328,0.75c-0.808,0.733-0.847,1.967-0.827,3.058
			C113.13,164.042,113.157,165.528,113.184,167.014z"/>
		<path style="fill:#74ADC5;" d="M84.817,249.399c-0.44,1.508-0.967,2.974-1.589,4.369c2.357,2.894,6.29,3.088,9.788,3.632
			c11.065,1.882,24.096,3.337,34.732-0.351c0.232-0.081,0.48-0.173,0.619-0.376c0.143-0.21,0.133-0.485,0.117-0.739
			c-0.76-11.741-3.484-23.254-4.278-34.991c-0.729-10.772,0.156-21.478-0.451-32.265c-0.083-1.47-0.223-2.953-0.456-4.418
			c-0.553-3.491-1.625-6.878-3.665-9.731c-3.64-5.09-10.359-7.499-16.46-6.589c-7.241,1.081-10.99,6.084-13.667,12.555
			c-5.127,12.392-4.19,24.891-3.955,37.814c0.106,5.834,0.938,11.628,1.02,17.462C86.632,240.222,86.1,244.993,84.817,249.399z"/>
		<path style="fill:#1C0C00;" d="M93.64,145.373c-0.121-1.426-0.24-2.821-0.435-4.121c-0.085-0.565-0.166-1.161,0.045-1.692
			c0.221-0.555,0.724-0.94,1.204-1.296c1.636-1.214,3.273-2.429,4.91-3.643c0.905-0.672,1.827-1.353,2.886-1.738
			c2.974-1.084,6.229,0.359,9.394,0.405c2.299,0.034,5.056-0.508,6.52,1.264c0.428,0.518,0.661,1.164,0.882,1.798
			c0.293,0.842,0.581,1.753,0.332,2.609c-0.346,1.188-1.66,1.879-2.897,1.904c-2.13,0.043-4.361-2.634-5.268,0.377
			c-0.56,1.858-2.197,2.41-2.882,4.088c-0.548,1.342,0.032,3.009-0.307,4.412c-0.358,1.48-1.58,2.018-2.409,3.136
			c-0.645,0.869-0.838,1.914-1.516,2.725c-1.414,1.691-4.038,2.043-6.096,1.741c-0.425-0.062-0.858-0.148-1.219-0.38
			c-0.42-0.27-0.698-0.709-0.934-1.149C94.263,152.826,93.947,148.997,93.64,145.373z"/>
		<path style="fill:#FCCFD0;" d="M106.007,145.788c-1.036,0.042-1.992,0.686-2.558,1.554c-0.565,0.869-0.77,1.936-0.734,2.972
			c0.032,0.894,0.244,1.8,0.741,2.543c0.497,0.743,1.306,1.305,2.197,1.377c1.444,0.116,2.745-1.09,3.168-2.476
			C109.45,149.704,108.883,145.672,106.007,145.788z"/>
		<path style="fill:#DBBDBD;" d="M115.057,210.242c-1.311,2.044-1.64,5.23-0.355,6.999c2.066,2.846,8.196,2.726,10.989,1.158
			c1.219-0.684,1.959-2.031,2.203-3.407c0.244-1.376,0.052-2.791-0.216-4.163c-0.286-1.464-0.873-3.146-2.304-3.565
			c-0.507-0.148-1.048-0.107-1.574-0.057c-1.32,0.125-2.636,0.296-3.944,0.512c-1.198,0.198-2.424,0.446-3.444,1.106
			C115.89,209.164,115.433,209.656,115.057,210.242z"/>
		<path style="fill:#1C0C00;" d="M106.535,148.065c-0.636-0.048-1.201,0.418-1.569,0.938c-0.332,0.469-0.572,1.026-0.549,1.599
			c0.023,0.574,0.354,1.156,0.89,1.36"/>
		<g id="XMLID_6_">
			<g id="XMLID_7_">
				<g id="XMLID_8_">
					<g id="XMLID_9_">
						<path id="XMLID_10_" style="fill:#FCCFD0;" d="M148.652,214.973c-0.608,0.129-1.221,0.214-1.817,0.258
							c-9.65,0.719-18.774-4.113-27.033-9.156c-5.925-3.618-12.012-7.728-15.035-13.977c-2.313-4.781-3.346-15.71,3.966-16.196
							c5.228-0.346,10.149,3.302,14.29,6.072c5.293,3.541,10.03,7.862,15.317,11.412c5.347,3.59,11.475,6.608,14.83,12.106
							c0.907,1.486,1.591,3.24,1.237,4.944C153.875,212.997,151.314,214.408,148.652,214.973z"/>
					</g>
				</g>
			</g>
		</g>
		<g id="XMLID_1_">
			<g id="XMLID_2_">
				<g id="XMLID_3_">
					<g id="XMLID_4_">
						<path id="XMLID_5_" style="fill:#FCCFD0;" d="M140.949,210.436c5.979,6.305,17.846,3.793,15.431-6.382
							c-1.37-5.772-4.132-11.224-7.362-16.181c-1.532-2.351-3.22-4.596-4.907-6.839c-2.127-2.828-4.254-5.656-6.381-8.484
							c-1.826-2.428-3.651-4.855-5.554-7.223c-1.549-1.928-3.169-3.835-5.158-5.304c-2.287-1.69-4.369-2.154-7.006-2.874
							c-2.937-0.801-5.539,1.228-5.542,4.142c-0.001,0.708-0.001,1.415-0.002,2.123c0,0.741,0.001,1.493,0.211,2.203
							c0.302,1.018,1.046,1.897,2.001,2.362c0.368,0.179,0.799,0.299,1.183,0.158c0.487-0.178,0.749-0.736,0.745-1.254
							c-0.004-0.518-0.217-1.01-0.427-1.484c1.737,0.891,3.665,0.222,5.116,1.65c1.281,1.26,1.744,3.138,2.263,4.8
							c1.909,6.114,3.432,12.241,5.409,18.331C133.234,197.147,135.798,205.004,140.949,210.436z"/>
					</g>
				</g>
			</g>
		</g>
		<path style="fill:#74ADC5;" d="M103.578,207.876c0.864-0.347,8.054-2.893,8.916-3.246c8.349-3.426,10.445-12.586,16.212-19.935
			c-0.185,0.143-8.225-8.746-8.802-9.66c-2.195-3.476-4.869-4.965-8.754-6.306c-3.886-1.341-6.624,1.061-9.509,3.989
			c-5.111,5.189-3.425,14.399-2.542,20.843c0.361,2.633,1.643,5.368,2.542,7.847C102.001,202.401,102.745,205.724,103.578,207.876z"
			/>
		<path style="fill:#050504;" d="M111.131,158.452c-0.602-0.393-1.085-0.935-1.54-1.496c-0.048,0.061-0.095,0.122-0.142,0.184
			c-0.051,0.066,0.189,0.604,0.221,0.694c0.085,0.242,0.177,0.481,0.276,0.717c0.167,0.396,0.338,0.808,0.552,1.182
			c0.29,0.507,0.684,0.954,1.15,1.306c0.472,0.357,1.038,0.579,1.482,0.977c0-0.455,0.087-0.914,0.192-1.351
			c0.05-0.206,0.136-0.399,0.238-0.582c0.139-0.306,0.328-0.579,0.581-0.773C113.096,159.178,112.035,159.043,111.131,158.452z"/>
		<path style="fill:#1C0C00;" d="M58.336,416.543c0.16-2.146-0.434-9.948,1.755-11.205c0.309-0.177,0.657-0.266,1-0.349
			c4.479-1.084,9.07-1.565,13.602-1.424c0.846,5.326,6.29,4.382,10.962,5.75c1.581,0.463,3.191,0.939,4.521,1.864
			c1.99,1.384,3.159,3.648,3.838,5.977"/>
		<path style="fill:none;stroke:#000000;stroke-miterlimit:10;" d="M114.647,159.17c1.035-0.425,1.985-1.056,2.778-1.844"/>
		<path style="fill:none;stroke:#000000;stroke-width:0.75;stroke-miterlimit:10;" d="M98.177,186.024
			c3.948,3.293,5.338,8.68,8.212,12.942c1.766,2.618,4.09,4.802,6.395,6.962c1.336-0.685,2.399-1.885,2.919-3.293"/>
		<path style="fill:none;stroke:#000000;stroke-miterlimit:10;" d="M115.019,152.43c0.78,0.484,1.646,0.827,2.546,1.008"/>
		<path style="fill:none;stroke:#000000;stroke-width:0.75;stroke-miterlimit:10;" d="M130.081,186.958
			c4.549,5.099,9.609,9.742,15.078,13.839"/>
	</g>
	<g>
		<path style="fill:#D6A447;" d="M548.085,349.065c-1.015-3.936-2.377-8.058-1.271-11.969c1.337-4.727,4.426-8.439,4.138-13.599
			c-0.299-5.359-2.602-8.688,0.956-13.87c2.62-3.815,6.469-6.754,8.579-10.872c3.066-5.986,1.902-13.286,3.99-19.679
			c0.548-1.678,1.501-3.449,3.189-3.966c1.081-0.331,2.284-0.061,3.248,0.529c3.178,1.943,3.455,6.415,3.001,10.112
			c-0.654,5.325-1.616,12.093-3.996,16.951c-1.767,3.607-6.054,6.185-6.91,10.234c-0.905,4.282,2.6,8.657,1.475,12.886
			c-1.105,4.15-5.525,5.221-7.668,8.485c-2.419,3.684-2.096,7.908-1.507,12.276c0.449,3.329,0.933,6.821-0.258,9.962
			c-0.618,1.631-5.715,7.254-7.501,4.332c-0.211-0.346,1.353-4.454,1.4-5.23C549.086,353.441,548.633,351.187,548.085,349.065z"/>
		<g>
			<path style="fill:#1C0C00;" d="M544.039,353.808c-0.001-0.084-0.003-0.169-0.008-0.253c-0.131-2.593-1.942-4.788-3.891-6.503
				c-3.232-2.842-6.301-10.237-6.867-14.537c-0.389-2.957,0.114-5.965-0.111-8.939c-0.348-4.596-2.402-8.861-3.775-13.261
				c-1.266-4.056-1.962-8.289-2.063-12.536c-0.04-1.68,0.175-3.657,1.62-4.514c1.186-0.704,2.79-0.292,3.807,0.64
				c1.017,0.932,1.557,2.268,1.955,3.589c1.98,6.571,1.233,13.865,4.074,20.112c1.296,2.851,3.32,5.43,3.902,8.507
				c0.632,3.346-0.533,6.873,0.3,10.176c1.396,5.532,6.805,8.668,7.248,14.654c0.05,0.673,0.049,1.358,0.238,2.005
				c0.292,0.997,1.004,1.805,1.576,2.672c1.485,2.254,3.851,7.207,1.439,9.18c-4.401,3.601-9.571-4.026-9.653-7.782
				C543.807,355.945,544.05,354.879,544.039,353.808z"/>
			<path style="fill:#006C80;" d="M557.82,346.272c0.438-1.488,0.89-3.006,1.786-4.271c1.659-2.343,4.732-3.686,5.603-6.421
				c0.361-1.132,0.279-2.351,0.425-3.53c0.259-2.101,1.316-4.149,3.059-5.35c1.743-1.201,4.187-1.428,5.998-0.331
				c2.344,1.42,3.058,4.438,3.502,7.143c1.38,8.406,2.082,17.518-2.009,24.99c-0.188,0.344-0.399,0.696-0.733,0.901
				c-0.953,0.585-2.132-0.368-2.656-1.356c-2.518-4.752,0.627-11.039-1.856-15.809c-0.196-0.377-0.492-0.779-0.917-0.798
				c-0.337-0.015-0.631,0.223-0.855,0.475c-1.261,1.415-1.415,3.562-2.664,4.988c-1.127,1.286-2.954,1.766-4.125,3.011
				c-0.978,1.04-1.379,2.479-1.747,3.858c-0.664,2.488-1.384,12.466-5.062,8.138C552.357,358.126,556.665,350.197,557.82,346.272z"
				/>
			<path style="fill:#FF6161;" d="M552.017,390.457h-0.513c-7.164,0-13.203-5.344-14.074-12.454l-2.259-18.429h32.855l-1.906,18.182
				C565.363,384.975,559.276,390.457,552.017,390.457z"/>
			<path style="fill:#1C0C03;" d="M560.752,365.322c-1.685,0.531-3.376,1.045-5.071,1.546c-0.894,0.301-1.788,0.603-2.685,0.898
				c3.348-0.878,6.694-1.764,10.027-2.694c1.148-0.34,2.297-0.675,3.442-1.022c-0.178,0.036-0.357,0.072-0.534,0.11
				C564.202,364.533,562.476,364.923,560.752,365.322z"/>
			<path style="fill:#1C0C03;" d="M536.46,370.085c1.145-0.348,2.29-0.697,3.438-1.034c-1.148,0.316-2.299,0.616-3.454,0.904
				L536.46,370.085z"/>
			<path style="fill:#1C0C03;" d="M537.296,366.373c6.138-1.918,12.332-3.722,18.581-5.291c1.709-0.509,3.421-1.011,5.133-1.509
				h-25.839l0.882,7.197C536.468,366.639,536.881,366.503,537.296,366.373z"/>
			<path style="fill:#1C0C03;" d="M567.301,359.573c-3.704,0.729-7.386,1.558-11.047,2.474c-1.067,0.318-2.134,0.635-3.201,0.956
				c4.95-1.08,9.941-1.994,14.922-2.941l0.051-0.488H567.301z"/>
			<path style="fill:#993333;" d="M568.565,353.659h-33.538c-0.294,0-0.578,0.031-0.855,0.079v7.727
				c0.278,0.048,0.563,0.08,0.855,0.08h33.538c0.56,0,1.096-0.095,1.594-0.265v-7.356
				C569.666,353.756,569.131,353.659,568.565,353.659z"/>
		</g>
	</g>
	<g>
		<polygon points="308.708,445.848 327.515,441.143 308.261,436.042 		"/>
		<rect x="105.979" y="435.871" style="fill:#D6A447;" width="202.73" height="9.977"/>
		<path style="fill:#FF6161;" d="M113.632,446.087h-6.911c-2.886,0-5.226-2.34-5.226-5.225l0,0c0-2.886,2.34-5.225,5.226-5.225
			h6.911V446.087z"/>
		<line style="fill:none;stroke:#1C0C00;stroke-miterlimit:10;" x1="113.632" y1="435.637" x2="113.632" y2="446.571"/>

			<line style="fill:none;stroke:#1C0C00;stroke-width:0.5;stroke-miterlimit:10;" x1="311.231" y1="438.917" x2="113.476" y2="438.917"/>

			<line style="fill:none;stroke:#1C0C00;stroke-width:0.5;stroke-miterlimit:10;" x1="311.231" y1="442.666" x2="113.476" y2="442.666"/>
	</g>
	<g>
		<g>
			<g>
				<g>
					<g>
						<path style="fill:#D6A447;" d="M249.303,321.51L249.303,321.51c-13.716,0.123-24.935-10.897-25.058-24.613v0
							c-0.123-13.716,10.897-24.935,24.613-25.058l0,0c13.716-0.123,24.935,10.897,25.058,24.614l0,0
							C274.039,310.169,263.019,321.388,249.303,321.51z"/>
						<g>
							<defs>
								<path id="SVGID_1_" d="M249.303,321.51L249.303,321.51c-13.716,0.123-24.935-10.897-25.058-24.613v0
									c-0.123-13.716,10.897-24.935,24.613-25.058l0,0c13.716-0.123,24.935,10.897,25.058,24.614l0,0
									C274.039,310.169,263.019,321.388,249.303,321.51z"/>
							</defs>
							<clipPath id="SVGID_00000004526489183654606450000005997209123098299532_">
								<use xlink:href="#SVGID_1_"  style="overflow:visible;"/>
							</clipPath>
							<g style="clip-path:url(#SVGID_00000004526489183654606450000005997209123098299532_);">
								<path style="fill:#1C0C00;" d="M253.426,278.433c-0.138,0.083-0.358,0.091-0.867,0.079c-0.758-0.017-1.801-0.777-2.473-1.1
									c-1.437-0.692-2.847-1.467-4.451-1.686c-0.631-0.086-1.347-0.058-1.804,0.386c-0.874,0.847-0.14,2.299,0.61,3.257
									c-1.036,0.508-2.276-0.374-3.402-0.125c-0.691,0.153-1.254,0.769-1.344,1.471c-0.09,0.702,0.299,1.44,0.929,1.762
									c-1.88-0.962-1.979,11.389-1.939,12.118c0.196,3.517-0.41,8.107,3.389,10c1.378,0.687,3.006,0.599,4.533,0.399
									c2.94-0.385,5.832-1.127,8.594-2.204c1.904-0.743,3.819-1.552,4.615-3.569c0.532-1.348,0.798-2.776,0.909-4.217
									c0.345-4.47,1.781-12.755-4.107-14.27c0.249-0.12,0.508-0.247,0.68-0.463c0.172-0.217,0.23-0.551,0.055-0.766
									c-0.121-0.148-0.318-0.206-0.505-0.248c-0.651-0.145-1.324-0.19-1.988-0.131c0.271-0.358,0.553-0.747,0.573-1.196
									c0.02-0.449-0.36-0.94-0.801-0.853c-0.221,0.043-0.394,0.215-0.533,0.393C253.65,278.048,253.621,278.316,253.426,278.433z"
									/>
								<path style="fill:#FFFFFF;" d="M276.391,334.875c-0.148-1.155-0.458-2.318-0.754-3.526c-0.289-1.18-0.724-2.323-1.283-3.401
									c-0.277-0.534-0.584-1.051-0.918-1.55c-0.153-0.228-0.38-0.457-0.462-0.717c-0.089-0.283-0.085-0.591-0.159-0.879
									c-0.094-0.365-0.286-0.696-0.476-1.021c-0.19-0.324-0.38-0.649-0.57-0.974c-0.141-0.242-0.283-0.483-0.44-0.715
									c-1.251-1.838-3.267-2.745-5.348-3.296c-2.191-0.58-4.473-0.64-6.689-1.053c-0.644-0.12-1.292-0.224-1.947-0.257
									c-2.717-0.135-5.432,0.166-8.125,0.496c-1.061,0.13-2.12,0.272-3.179,0.421c-1.374,0.193-2.746,0.398-4.118,0.604
									c-0.612,0.092-1.213,0.109-1.828,0.204c-0.674,0.104-1.346,0.223-2.009,0.386c-2.432,0.595-4.862,1.233-7.044,2.519
									c-1.074,0.633-2.06,1.4-2.951,2.272c-0.379,0.371-0.885,0.659-1.306,0.989c-0.446,0.349-0.884,0.708-1.314,1.077
									c-1.714,1.472-3.291,3.109-4.653,4.913c-0.953,1.262-1.791,2.612-2.495,4.028L276.391,334.875z"/>
								<path style="fill:#FFDBDB;" d="M243.361,302.986c0.651-3.095,4.173-5.622,7.09-6.291c0.869-0.199,1.793-0.275,2.644-0.008
									c2.074,0.652,3.121,3.112,3.492,5.082c0.533,2.839,0.534,5.886,0.789,8.765c0.147,1.667,0.306,3.414,1.055,4.938
									c0.897,1.827,2.505,2.554,4.481,2.763c-0.002,1.88-0.846,3.66-1.751,5.271c-1.016,1.807-2.369,3.451-4.15,4.547
									c-1.894,1.166-4.199,1.648-6.401,1.339c-2.574-0.361-4.913-1.755-6.824-3.517c-1.109-1.022-2.224-2.182-3.001-3.46
									c-0.141-0.232-2.05-2.97-1.894-3.001c0.493-0.098,0.985-0.197,1.478-0.295c0.372-0.074,0.746-0.15,1.093-0.303
									c1.603-0.71,1.754-2.748,1.905-4.272c0.275-2.775,0.284-5.577,0.026-8.354c-0.075-0.811-0.173-1.624-0.132-2.437
									C243.274,303.494,243.308,303.238,243.361,302.986z"/>
								<path style="fill:#FFDBDB;" d="M256.691,285.163c-0.629-0.604-1.396-1.092-2.118-1.537
									c-1.416-0.874-2.982-1.529-4.668-1.557c-3.119-0.052-6.974,1-8.066,4.279c-0.356,1.069-0.449,2.205-0.6,3.322
									c-0.367,2.707-1.089,5.37-1.223,8.099c-0.1,2.045,0.162,4.183,1.108,6.023c1.011,1.967,2.844,3.245,4.856,4.068
									c4.659,1.904,11.359,1.017,12.847-4.453c0.365-1.34,0.757-2.726,0.732-4.124c-0.025-1.421-0.504-2.786-0.832-4.155
									c-0.448-1.87-0.477-3.73-0.608-5.626C258.011,287.94,257.892,286.318,256.691,285.163z"/>
								<path style="fill:#1C0C00;" d="M239.561,285.618c-0.011,0.502,0.086,5.496,0.311,5.464c3.346-0.485,6.65-1.258,9.865-2.303
									c3.008-0.978,5.248-2.503,8.008-3.907c0.17-0.087,0.347-0.179,0.459-0.335c0.3-0.419-0.031-0.987-0.352-1.39
									c-0.615-0.772-1.253-1.564-2.12-2.036c-0.54-0.294-1.143-0.449-1.739-0.601c-1.394-0.356-2.813-0.714-4.251-0.645
									c-1.414,0.068-2.551,0.697-3.886,1.017c-0.985,0.236-1.977,0.137-2.956,0.392
									C240.585,281.876,239.623,283.349,239.561,285.618z"/>
								<path style="fill:#1C0C00;" d="M259.789,302.598c0.226-0.829,0.405-1.67,0.536-2.519c0.334-2.175-0.216-4.299-0.415-6.454
									c-0.06-0.648,0.554-5.783-1.268-4.128c-0.397,0.361-0.528,0.923-0.638,1.448c-0.44,2.102-0.88,4.203-1.32,6.304
									c-0.188,0.898-0.556,1.977-1.461,2.124c-0.88,0.143-1.556-0.705-2.269-1.241c-1.058-0.796-2.483-0.966-3.789-0.75
									c-1.147,0.189-2.331,0.623-3.36,1.163c-0.697,0.367-1.586,1.346-2.416,1.185c-0.452-0.088-0.768-0.525-0.867-0.975
									c-0.098-0.45-0.026-0.917,0.029-1.374c0.219-1.843,0.725-8.529-2.635-7.804c-1.777,0.383-1.526,2.72-1.484,4.119
									c0.092,3.121,0.456,6.707,1.485,9.68c1.456,4.21,4.682,8.018,8.986,9.163c1.237,0.329,2.565,0.43,3.79,0.057
									c1.826-0.556,3.189-2.08,4.243-3.672C258.218,306.986,259.177,304.839,259.789,302.598z"/>
								<path style="fill:#FFDBDB;" d="M261.552,293.319c-0.307-1.324-1.192-2.089-2.091-2.047c-0.09,1.783-0.174,3.564-0.377,5.333
									C260.555,297.133,262.019,295.333,261.552,293.319z"/>
								<path style="fill:#FFDBDB;" d="M239.542,290.625c-0.537-0.004-1.084,0.28-1.521,0.914c-0.726,1.053-0.708,2.727,0.094,3.708
									c0.526,0.643,1.115,0.875,1.659,0.815C239.559,294.248,239.42,292.423,239.542,290.625z"/>
							</g>
						</g>
					</g>
				</g>
				<path style="fill:#1C0C00;" d="M249.429,295.584c-0.118-0.038-0.251-0.049-0.374-0.073c-0.116-0.022-0.23-0.042-0.347-0.057
					c-0.004,0-0.008-0.002-0.011-0.002c0.008-0.006,0.014-0.012,0.022-0.017c0.105-0.069,0.191-0.171,0.276-0.263
					c0.156-0.169,0.305-0.346,0.438-0.533c0.127-0.178,0.208-0.401,0.289-0.603c0.085-0.213,0.157-0.43,0.217-0.651
					c0.032-0.117-0.127-0.174-0.19-0.078c-0.264,0.403-0.596,0.739-0.894,1.114c-0.146,0.184-0.312,0.348-0.468,0.522
					c-0.13,0.145-0.276,0.532-0.031,0.63c0.074,0.165,0.239,0.274,0.399,0.341c0.122,0.051,0.245,0.102,0.367,0.153
					c0.152,0.063,0.3,0.088,0.462,0.115c0.121,0.02,0.242-0.024,0.289-0.145c0.041-0.104,0.01-0.256-0.104-0.307
					C249.658,295.683,249.546,295.621,249.429,295.584z"/>
			</g>
			<g>
				<g>
					<g>
						<path style="fill:#D6A447;" d="M250.384,255.635L250.384,255.635c-13.717-0.088-24.764-11.28-24.676-24.996l0,0
							c0.088-13.717,11.279-24.764,24.996-24.676l0,0c13.717,0.088,24.764,11.28,24.676,24.996v0
							C275.292,244.675,264.101,255.723,250.384,255.635z"/>
						<g>
							<defs>
								<path id="SVGID_00000157310222297588738690000015120188464011816365_" d="M250.384,255.635L250.384,255.635
									c-13.717-0.088-24.764-11.28-24.676-24.996l0,0c0.088-13.717,11.279-24.764,24.996-24.676l0,0
									c13.717,0.088,24.764,11.28,24.676,24.996v0C275.292,244.675,264.101,255.723,250.384,255.635z"/>
							</defs>
							<clipPath id="SVGID_00000155859713982554934270000012033397269203064452_">
								<use xlink:href="#SVGID_00000157310222297588738690000015120188464011816365_"  style="overflow:visible;"/>
							</clipPath>
							<g style="clip-path:url(#SVGID_00000155859713982554934270000012033397269203064452_);">
								<path style="fill:#5BA7B5;" d="M246.682,249.054c2.943,0.38,5.928,0.434,8.883,0.158c1.599-0.149,3.216-0.403,4.67-1.085
									c2.811-1.319,4.764-4.296,4.853-7.4c0.057-1.99-0.586-3.925-1.221-5.811c-1.036-3.076-2.072-6.151-3.108-9.227
									c-0.448-1.331-0.835-2.599-1.165-3.964c-0.302-1.25-0.682-2.542-1.532-3.54c-0.988-1.16-3.087-1.535-4.517-1.595
									c-1.473-0.061-2.688,0.329-4.088,0.517c-1.732,0.233-3.282,0.314-4.908,1.069c-0.756,0.351-1.492,0.801-1.995,1.466
									c-0.837,1.108-0.891,2.596-0.996,3.98c-0.319,4.19-1.422,8.319-3.235,12.109c-1.144,2.391-2.612,4.952-1.968,7.523
									c0.401,1.6,1.6,2.916,3.015,3.764c1.415,0.848,3.039,1.279,4.657,1.6C244.908,248.795,245.793,248.939,246.682,249.054z"/>
								<path style="fill:#FFDBDB;" d="M245.808,226.532c0.009-0.018,0.018-0.035,0.028-0.052c0.276-0.506,0.697-0.921,1.159-1.266
									c1.613-1.205,4.291-1.664,6.107-0.661c0.921,0.509,1.406,1.511,1.55,2.521c0.122,0.855,0.037,1.724-0.015,2.586
									c-0.199,3.339,0.163,13.246,2.074,13.811c2.469,0.73,1.669,2.887,2.456,2.744c-2.956,0.538-5.29,5.032-8.275,5.382
									c-2.985,0.35-6.697-5.185-9.116-6.964c1.593-0.157,2.805-0.831,3.266-2.501c1.073-3.881,0.795-7.988,0.456-12.025
									C245.396,228.898,245.25,227.605,245.808,226.532z"/>
								<path style="fill:#993333;" d="M273.455,251.987c-1.719-2.555-4.308-4.276-7.11-5.453c-1.408-0.592-2.866-1.06-4.332-1.484
									c-0.73-0.211-1.464-0.411-2.197-0.609c-0.654-0.177-1.489-0.552-2.145-0.546c0.131,0.623-0.736,1.415-1.145,1.797
									c-1.799,1.677-4.431,2.311-6.861,1.936c-2.431-0.374-4.657-1.68-6.412-3.402c-0.671,0.094-1.343,0.223-2.01,0.341
									c-1.131,0.201-2.219,0.583-3.359,0.902c-2.572,0.722-5.427,1.666-6.638,4.047c-0.99,1.945-0.568,4.288,0.008,6.393
									c0.165,0.604,0.344,1.213,0.503,1.827l8.406,0.054l6.843,0.044l8.421,0.054l4.472,0.029l15.866,0.102
									C275.326,255.872,274.67,253.794,273.455,251.987z"/>
								<path style="fill:#FFDBDB;" d="M257.427,226.142c-0.036,5.537-3.542,10.004-7.831,9.976
									c-4.289-0.028-7.737-4.539-7.702-10.076c0.036-5.537,3.542-10.004,7.831-9.976
									C254.015,216.093,257.463,220.604,257.427,226.142z"/>
								<path style="fill:#FFDBDB;" d="M243.762,225.959c-0.4-0.371-0.893-0.607-1.45-0.61c-0.527-0.003-1.083,0.222-1.458,0.592
									c-0.202,0.184-0.345,0.404-0.43,0.658c-0.13,0.244-0.191,0.507-0.182,0.789c0.02,0.531,0.191,1.083,0.593,1.455
									c0.4,0.371,0.893,0.607,1.45,0.61c0.527,0.003,1.083-0.222,1.458-0.592c0.202-0.185,0.345-0.404,0.429-0.658
									c0.13-0.244,0.191-0.507,0.182-0.789C244.334,226.883,244.163,226.332,243.762,225.959z"/>
								<path style="fill:#FFDBDB;" d="M258.869,226.057c-0.4-0.371-0.893-0.607-1.45-0.611c-0.527-0.003-1.083,0.222-1.458,0.592
									c-0.202,0.185-0.345,0.404-0.429,0.658c-0.13,0.244-0.191,0.507-0.182,0.79c0.02,0.531,0.191,1.082,0.593,1.455
									c0.4,0.371,0.893,0.607,1.45,0.61c0.527,0.003,1.083-0.222,1.458-0.592c0.202-0.185,0.345-0.404,0.429-0.658
									c0.13-0.244,0.191-0.507,0.182-0.79C259.442,226.981,259.271,226.429,258.869,226.057z"/>
								<path style="fill:#5BA7B5;" d="M257.993,217.189c-0.04-0.053-0.081-0.104-0.123-0.156c-1.184-1.462-2.561-2.527-4.465-2.832
									c-1.508-0.242-3.048-0.092-4.575-0.076c-2.28,0.025-4.625-0.239-6.792,0.471c-2.167,0.711-4.119,2.809-3.699,5.051
									c0.37,1.975,2.459,3.25,4.465,3.37c2.006,0.12,3.947-0.643,5.812-1.393c1.545-0.621,3.188-1.523,4.798-1.915
									c0.64-0.134,1.354-0.061,1.871,0.339c1.576,1.22,0.627,3.674,1.849,5.022c0.187,0.206,0.437,0.369,0.714,0.397
									c0.423,0.043,0.821-0.235,1.066-0.581C260.534,222.598,259.6,219.217,257.993,217.189z"/>
								<path style="fill:#FFFFFF;" d="M247.3,230.21c0.391,2.374,3.33,2.393,4.078,0.095"/>
								<path style="fill:#202B56;" d="M254.742,236.494c-0.035-0.934-0.067-1.867-0.062-2.705c-0.047,0.453-1.688,1.221-2.04,1.376
									c-0.767,0.337-1.565,0.531-2.377,0.629C251.734,236.171,253.231,236.391,254.742,236.494z"/>
							</g>
						</g>
					</g>
				</g>
				<path style="fill:#202B56;" d="M249.386,225.644c-0.077,0.343-0.133,0.7-0.256,1.03c-0.124,0.332-0.188,0.681-0.268,1.027
					c-0.033,0.144,0.052,0.287,0.203,0.309c0.156,0.022,0.265-0.093,0.28-0.24c0.036-0.351,0.088-0.701,0.078-1.054
					c-0.01-0.35,0.053-0.705,0.09-1.053C249.521,225.59,249.402,225.574,249.386,225.644z"/>
			</g>
			<g>
				<g>
					<g>
						<path style="fill:#D6A447;" d="M270.472,192.397L270.472,192.397c-13.701-0.668-24.266-12.316-23.598-26.016l0,0
							c0.668-13.701,12.315-24.266,26.016-23.598l0,0c13.701,0.668,24.266,12.315,23.598,26.016l0,0
							C295.82,182.499,284.173,193.064,270.472,192.397z"/>
						<g>
							<defs>
								<path id="SVGID_00000183969673664450751430000018265670185382578317_" d="M270.472,192.397L270.472,192.397
									c-13.701-0.668-24.266-12.316-23.598-26.016l0,0c0.668-13.701,12.315-24.266,26.016-23.598l0,0
									c13.701,0.668,24.266,12.315,23.598,26.016l0,0C295.82,182.499,284.173,193.064,270.472,192.397z"/>
							</defs>
							<clipPath id="SVGID_00000164492680803654081760000002142369567181809590_">
								<use xlink:href="#SVGID_00000183969673664450751430000018265670185382578317_"  style="overflow:visible;"/>
							</clipPath>
							<g style="clip-path:url(#SVGID_00000164492680803654081760000002142369567181809590_);">
								<path style="fill:#FFDBDB;" d="M267.129,163.127c0.01-0.017,0.02-0.034,0.03-0.051c0.297-0.494,0.735-0.89,1.211-1.216
									c1.663-1.135,4.357-1.482,6.129-0.402c0.899,0.548,1.341,1.569,1.442,2.584c0.086,0.859-0.036,1.724-0.124,2.583
									c-0.34,3.328-0.397,13.241,1.488,13.886c2.436,0.833,1.546,2.955,2.338,2.846c-2.977,0.413-5.498,4.804-8.495,5.028
									c-2.997,0.223-6.472-5.463-8.814-7.343c1.598-0.089,2.837-0.711,3.369-2.361c1.236-3.832,1.131-7.947,0.964-11.994
									C266.618,165.473,266.526,164.175,267.129,163.127z"/>
								<path style="fill:#FF6161;" d="M279.88,195.079c-0.009-0.137-0.021-0.274-0.03-0.412c-0.139-2.195-0.186-4.395-0.193-6.593
									c-0.004-1.117,0.005-2.234,0.02-3.351c0.011-0.844,0.343-2.456-0.083-3.161c-1.478,0.907-2.794,2.334-4.155,3.429
									c-1.484,1.194-2.993,2.357-4.527,3.488c-0.181,0.134-7.528-6.79-8.357-7.348c-0.866,0.582-1.064,3.219-1.319,4.207
									c-0.415,1.607-0.839,3.253-0.912,4.919c-0.056,1.288-0.108,2.575-0.158,3.863L279.88,195.079z"/>
								<path style="fill:#1C0C03;" d="M295.727,195.851c-0.345-2.163-0.913-4.268-2.051-6.125
									c-2.883-4.705-8.956-6.842-13.899-8.517c-2.315-0.784-2.501,0.591-3.015,2.94c-0.384,1.756-0.531,3.553-0.737,5.336
									c-0.201,1.743-0.409,3.574-0.612,5.376L295.727,195.851z"/>
								<path style="fill:#1C0C03;" d="M251.77,193.709l15.232,0.742c-0.291-1.465-0.668-2.928-0.94-4.315
									c-0.473-2.413-1.366-4.919-1.937-7.366c-0.173-0.74-0.261-1.506-0.446-2.237c-1.648-0.027-3.645,0.796-5.268,1.179
									c-2.6,0.613-5.492,1.435-6.803,3.763c-1.071,1.902-0.749,4.261-0.262,6.388C251.485,192.474,251.638,193.09,251.77,193.709z
									"/>
								<path style="fill:#FFDBDB;" d="M278.755,163.227c-0.27,5.531-3.961,9.845-8.245,9.637s-7.539-4.862-7.269-10.393
									c0.27-5.531,3.961-9.845,8.245-9.636C275.77,153.044,279.024,157.697,278.755,163.227z"/>
								<path style="fill:#FFDBDB;" d="M265.109,162.468c-0.384-0.388-0.867-0.644-1.423-0.671c-0.527-0.026-1.091,0.176-1.482,0.53
									c-0.209,0.176-0.362,0.389-0.457,0.639c-0.14,0.238-0.212,0.498-0.215,0.781c-0.002,0.531,0.146,1.09,0.531,1.479
									c0.384,0.388,0.867,0.644,1.423,0.671c0.527,0.026,1.091-0.176,1.482-0.53c0.209-0.176,0.362-0.389,0.457-0.639
									c0.141-0.238,0.212-0.498,0.215-0.781C265.642,163.416,265.494,162.857,265.109,162.468z"/>
								<path style="fill:#FFDBDB;" d="M280.199,163.204c-0.384-0.388-0.867-0.644-1.423-0.671
									c-0.527-0.026-1.091,0.176-1.482,0.529c-0.209,0.176-0.362,0.389-0.457,0.639c-0.141,0.238-0.212,0.498-0.215,0.781
									c-0.002,0.531,0.146,1.089,0.531,1.479c0.384,0.388,0.866,0.644,1.423,0.671c0.527,0.026,1.091-0.176,1.482-0.53
									c0.209-0.176,0.362-0.389,0.457-0.639c0.14-0.238,0.212-0.498,0.215-0.781C280.732,164.151,280.584,163.593,280.199,163.204
									z"/>
								<path style="fill:#1C0C00;" d="M279.678,154.314l0.02-0.007c-0.038-0.054-0.077-0.108-0.116-0.161
									c-0.156-0.21-0.328-0.406-0.506-0.594c-1.598-1.897-3.637-3.406-5.988-4.252c-2.639-0.949-5.601-1.027-8.257-0.127
									c-0.802,0.272-1.587,0.638-2.224,1.196c-0.637,0.558-1.116,1.328-1.199,2.17c-0.021,0.216-0.012,0.436,0.023,0.651
									c-0.458,0.361-0.856,0.783-1.118,1.301c-0.316,0.627-0.255,1.143-0.129,1.724c-0.383,0.432-0.702,0.925-0.742,1.491
									c-0.036,0.519,0.277,1.075,0.723,1.285c-0.183,0.815-0.117,1.664,0.529,2.286c0.901,0.867,2.332,0.975,3.524,0.594
									c3.186-1.02,5.996-3.051,8.971-4.55c0.584-0.294,1.182-0.585,1.828-0.691c0.646-0.106,1.355-0.004,1.855,0.418
									c1.523,1.285,0.472,3.698,1.636,5.096c0.178,0.214,0.421,0.387,0.696,0.427c0.42,0.061,0.83-0.201,1.09-0.536
									C282.008,159.818,281.218,156.401,279.678,154.314z"/>
								<path style="fill:#FFFFFF;" d="M268.613,168.234c0.29,2.388,3.226,2.531,4.071,0.267"/>
								<path style="fill:#202B56;" d="M275.083,173.194c0.185,0.009,0.368-0.004,0.553,0c0.005-0.846,0.014-1.684,0.051-2.443
									c-0.066,0.451-1.738,1.149-2.096,1.289c-0.724,0.282-1.469,0.436-2.224,0.508
									C272.557,172.96,273.833,173.135,275.083,173.194z"/>
							</g>
						</g>
					</g>
				</g>
				<path style="fill:#202B56;" d="M271.274,165.428c-0.49,0.041-0.936-0.049-1.382-0.221c0.109-0.218,0.232-0.429,0.363-0.635
					c0.176-0.276,0.351-0.553,0.525-0.831c0.022-0.036-0.029-0.085-0.059-0.05c-0.428,0.496-0.83,1.039-1.332,1.462
					c-0.125,0.105-0.095,0.302,0.031,0.389c0.525,0.361,1.193,0.512,1.824,0.481c0.155-0.008,0.311-0.111,0.312-0.283
					C271.558,165.596,271.441,165.414,271.274,165.428z"/>
			</g>
			<path style="fill:none;stroke:#FF6161;stroke-width:2;stroke-miterlimit:10;" d="M432.443,114.298
				c3.612,3.201,9.206,8.176,12.162,11.99"/>
			<path style="fill:none;stroke:#FF6161;stroke-width:2;stroke-miterlimit:10;" d="M446.242,113.883
				c-4.403,4.268-8.806,8.535-13.209,12.803"/>
			<g>
				<path style="fill:none;stroke:#000000;stroke-width:0.75;stroke-miterlimit:10;" d="M288.129,376.245
					c0,0-6.924,7.381-15.464,7.381c-8.541,0-15.464-7.381-15.464-7.381s6.924-7.381,15.464-7.381
					C281.206,368.865,288.129,376.245,288.129,376.245z"/>
				<path style="fill:#1C0C00;" d="M277.117,376.362c0,4.012-1.993,7.263-4.452,7.263c-2.459,0-4.452-3.252-4.452-7.263
					s1.993-7.264,4.452-7.264C275.124,369.099,277.117,372.351,277.117,376.362z"/>
			</g>
			<g>
				<path style="fill:none;stroke:#1C0C00;stroke-width:0.75;stroke-miterlimit:10;" d="M353.521,372.488
					c0.232,1.89,2.63,12.45,2.583,14.969c4.151-0.082,8.297-0.334,12.447-0.47c0.267-0.325,0.421-0.737,0.535-1.147
					c0.03-0.109,0.059-0.218,0.087-0.328c0.865-3.451,0.233-7.113,0.526-10.671c0.09-1.083,0.265-2.182,0.06-3.249
					c-1.724-0.472-3.539-0.44-5.326-0.405c-1.954,0.038-4.042,0.29-5.983,0.078c-1.567-0.172-3.099-0.619-4.567,0.324
					c-0.138,0.089-0.276,0.196-0.339,0.348c-0.051,0.122-0.048,0.259-0.039,0.391C353.508,372.371,353.513,372.424,353.521,372.488z
					"/>
				<path style="fill:none;stroke:#1C0C00;stroke-width:0.75;stroke-miterlimit:10;" d="M357.296,373.241
					c0.291,3.847,0.762,7.68,1.412,11.483"/>
				<path style="fill:none;stroke:#1C0C00;stroke-width:0.75;stroke-miterlimit:10;" d="M361.662,373.238
					c0.264,3.602,0.372,7.893,0.636,11.495"/>
				<path style="fill:none;stroke:#1C0C00;stroke-width:0.75;stroke-miterlimit:10;" d="M366.161,373.939
					c-0.1,3.594-0.199,7.188-0.299,10.783"/>
				<path style="fill:none;stroke:#1C0C00;stroke-width:0.75;stroke-miterlimit:10;" d="M368.76,371.192
					c-2.379-2.749-8.534-3.2-11.797-2.101c-1.015,0.342-1.948,1.134-2.147,2.186"/>
				<path style="fill:#1C0C00;" d="M359.624,368.777c0.174-0.887,0.987-1.609,1.889-1.676c0.902-0.068,1.813,0.524,2.118,1.376"/>
			</g>
			<g>
				<path style="fill:none;stroke:#1C0C00;stroke-width:0.75;stroke-miterlimit:10;" d="M324.668,367.884
					c-3.851-1.301-8.053-1.244-12.051-0.511c-1.968,0.361-3.948,0.9-5.609,2.015c-1.661,1.115-2.975,2.89-3.124,4.885
					c-0.147,1.968,0.861,3.899,2.321,5.227c1.46,1.328,3.327,2.125,5.217,2.693c6.461,1.94,13.64,1.377,19.719-1.547
					c1.166,1.752,2.438,3.434,3.804,5.035c-0.515-0.603,0.127-5.917-0.096-7.12c-0.262-1.414-0.539-2.755-1.293-3.995
					C331.727,371.556,327.92,368.983,324.668,367.884z"/>
				<path style="fill:none;stroke:#1C0C00;stroke-width:0.75;stroke-miterlimit:10;" d="M310.233,373.795
					c5.415-0.016,10.829-0.032,16.244-0.048"/>
				<path style="fill:none;stroke:#1C0C00;stroke-width:0.75;stroke-miterlimit:10;" d="M309.903,376.898
					c4.049,0.469,8.142,0.566,12.209,0.289"/>
				<path style="fill:none;stroke:#1C0C00;stroke-width:0.75;stroke-miterlimit:10;" d="M324.899,376.776
					c0.449,0.32,1.044,0.424,1.574,0.276"/>
			</g>
			<g>
				<path style="fill:none;stroke:#000000;stroke-miterlimit:10;" d="M464.226,109.864c1.163-1.838,4.511-2.656,6.263-1.254
					c1.065,0.852,1.591,2.644,1.331,3.945c-0.339,1.698-1.885,2.847-2.798,4.318c-1.225,1.975-0.994,4.454-0.914,6.676"/>
				<path d="M468.729,126.595c-0.032-0.125-0.057-0.255-0.123-0.368c-0.042-0.073-0.115-0.149-0.171-0.218
					c-0.022-0.027-0.044-0.054-0.066-0.08c-0.047-0.036-0.093-0.072-0.14-0.108c-0.079-0.05-0.165-0.078-0.257-0.082
					c-0.061-0.016-0.122-0.016-0.184,0c-0.092,0.004-0.177,0.032-0.257,0.082c-0.047,0.036-0.093,0.072-0.14,0.108
					c-0.036,0.047-0.072,0.093-0.108,0.14c-0.05,0.079-0.078,0.165-0.082,0.257c-0.02,0.092-0.016,0.184,0.012,0.275
					c0.032,0.125,0.057,0.255,0.123,0.368c0.042,0.073,0.115,0.149,0.172,0.218c0.022,0.027,0.044,0.054,0.065,0.08
					c0.047,0.036,0.093,0.072,0.14,0.108c0.079,0.05,0.165,0.078,0.257,0.082c0.061,0.016,0.122,0.016,0.184,0
					c0.092-0.004,0.177-0.031,0.257-0.082c0.047-0.036,0.093-0.072,0.14-0.108c0.036-0.047,0.072-0.093,0.108-0.14
					c0.051-0.079,0.078-0.165,0.082-0.257C468.762,126.778,468.758,126.686,468.729,126.595z"/>
			</g>
			<path style="fill:none;stroke:#5BA7B5;stroke-width:2;stroke-miterlimit:10;" d="M432.591,93.045
				c2.687,2.522,5.374,5.044,8.061,7.565c3.497-4.789,6.427-9.992,8.708-15.466"/>
			<path style="fill:none;stroke:#5BA7B5;stroke-width:2;stroke-miterlimit:10;" d="M459.797,90.646
				c2.459,3.501,4.8,7.085,7.017,10.745c3.677-5.972,7.354-11.945,11.032-17.917"/>
			<g>
				<g>
					<path style="fill:#5BA7B5;" d="M326.285,190.803c-0.34,2.696-2.802,4.606-5.498,4.265c-2.696-0.34-4.606-2.802-4.265-5.498
						c0.34-2.696,2.802-4.606,5.498-4.265C324.716,185.645,326.626,188.107,326.285,190.803z"/>

						<rect x="334.037" y="185.735" transform="matrix(0.9999 -0.012 0.012 0.9999 -2.259 4.0777)" style="fill:#D6A447;" width="8.904" height="8.904"/>
					<polygon style="fill:#FF6161;" points="355.617,184.163 357.459,188.009 361.671,188.673 358.582,191.613 359.253,195.824
						355.502,193.795 351.704,195.735 352.475,191.54 349.457,188.528 353.684,187.964 					"/>
				</g>
				<g>
					<path style="fill:none;stroke:#000000;stroke-miterlimit:10;" d="M370.671,156.478c13.787,0.239,27.787,0.239,41.598,0"/>
					<path style="fill:none;stroke:#000000;stroke-miterlimit:10;" d="M317.219,156.478c9.41,0.173,29.439,0.173,41.18,0"/>
					<path style="fill:none;stroke:#000000;stroke-miterlimit:10;" d="M391.267,164.766c7.001,0,14.001,0,21.002,0"/>
					<path style="fill:none;stroke:#000000;stroke-miterlimit:10;" d="M317.219,164.766c21.24-0.048,45.496,0.863,65.87,0"/>
					<path style="fill:none;stroke:#000000;stroke-miterlimit:10;" d="M347.95,173.312c21.508,0.405,42.508,0.405,64.319,0"/>
					<path style="fill:none;stroke:#000000;stroke-miterlimit:10;" d="M317.219,173.312c5.038,0,12.66-0.259,17.698-0.259"/>
				</g>
			</g>
			<g>
				<g>
					<path style="fill:#5BA7B5;" d="M307.285,250.159c-0.34,2.696-2.802,4.606-5.498,4.265c-2.696-0.34-4.606-2.802-4.265-5.498
						c0.34-2.696,2.802-4.606,5.498-4.265C305.716,245.001,307.626,247.463,307.285,250.159z"/>
					<polygon style="fill:#FF6161;" points="336.617,243.519 338.459,247.365 342.671,248.028 339.582,250.969 340.253,255.18
						336.502,253.151 332.704,255.091 333.475,250.896 330.457,247.883 334.684,247.32 					"/>
					<polygon style="fill:#FF6161;" points="320.387,243.519 322.228,247.365 326.441,248.028 323.352,250.969 324.023,255.18
						320.272,253.151 316.474,255.091 317.245,250.896 314.227,247.883 318.454,247.32 					"/>
				</g>
				<path style="fill:none;stroke:#000000;stroke-miterlimit:10;" d="M377.954,216.64c4.772-0.026,6.436,0.007,11.207-0.076"/>
				<path style="fill:none;stroke:#000000;stroke-miterlimit:10;" d="M297.219,216.478c12.239,0.239,62.967,0.843,74.504,0.604"/>
				<path style="fill:none;stroke:#000000;stroke-miterlimit:10;" d="M371.267,224.766c7.001,0,10.893-0.432,17.894-0.432"/>
				<path style="fill:none;stroke:#000000;stroke-miterlimit:10;" d="M297.219,224.766c21.239-0.048,45.46,0.21,66.216,0.259"/>
				<path style="fill:none;stroke:#000000;stroke-miterlimit:10;" d="M337.535,234.003c17.791,0.222,31.765-1.051,49.554-1.381"/>
				<path style="fill:none;stroke:#000000;stroke-miterlimit:10;" d="M304.902,233.485c8.115-0.173,18.812,0.691,26.417,0.691"/>
				<path style="fill:none;stroke:#000000;stroke-miterlimit:10;" d="M299.219,233.312c1.152,0,2.305,0,3.457,0"/>
			</g>
			<g>
				<g>
					<path style="fill:#5BA7B5;" d="M321.911,312.317c-0.341,2.696-2.802,4.606-5.498,4.265c-2.696-0.34-4.606-2.802-4.265-5.498
						c0.34-2.696,2.802-4.606,5.498-4.265C320.342,307.159,322.251,309.621,321.911,312.317z"/>
					<polygon style="fill:#FF6161;" points="333.113,305.159 334.955,309.005 339.168,309.668 336.079,312.609 336.75,316.82
						332.999,314.791 329.201,316.731 329.971,312.536 326.953,309.523 331.18,308.96 					"/>
				</g>
				<path style="fill:none;stroke:#000000;stroke-miterlimit:10;" d="M337.636,279.143c7.106-0.015,14.361,0.313,21.496,0.356
					c9.686,0.058,18.559-0.713,28.208-0.777"/>
				<path style="fill:none;stroke:#000000;stroke-miterlimit:10;" d="M295.399,278.636c7.305,0.18,30.69,0.636,37.576,0.455"/>
				<path style="fill:none;stroke:#000000;stroke-miterlimit:10;" d="M375.449,287.528c7.001,0,4.114,0,11.115,0"/>
				<path style="fill:none;stroke:#000000;stroke-miterlimit:10;" d="M354.212,295.816c17.791,0.222,14.585-0.447,32.374-0.777"/>
				<path style="fill:none;stroke:#000000;stroke-miterlimit:10;" d="M295.938,295.816c8.115-0.173,41.085,0.259,48.69,0.259"/>
				<rect x="296.55" y="306.823" style="fill:#D6A447;" width="9.23" height="9.23"/>
				<path style="fill:none;stroke:#000000;stroke-miterlimit:10;" d="M295.667,286.854c7.23,0.243,14.46,0.486,21.69,0.729
					c17.28,0.581,34.596,1.162,51.847-0.009"/>
			</g>
			<path style="fill:none;stroke:#000000;stroke-miterlimit:10;" d="M478.047,137.312h-45.34c-4.855,0-8.79-3.936-8.79-8.79V85.499
				c0-4.855,3.936-8.791,8.79-8.791h45.34c4.855,0,8.79,3.936,8.79,8.791v43.023C486.837,133.377,482.902,137.312,478.047,137.312z"
				/>
			<path style="fill:none;stroke:#000000;stroke-miterlimit:10;" d="M382.965,394.923H251.804c-3.927,0-7.11-3.183-7.11-7.11
				c0-6.526-0.31-13.294,0.183-19.788c0.303-3.998,1.961-8.293,5.571-10.036c1.951-0.943,4.195-1.008,6.362-1.055
				c41.279-0.903,82.602-1.805,123.835,0.323c1.774,0.091,3.6,0.201,5.206,0.961c5.739,2.715,4.278,12.559,3.998,17.602
				C389.52,381.752,391.896,394.923,382.965,394.923z"/>
		</g>
		<g>
			<path style="fill:#D6A447;" d="M317.286,91.422c0.856-4.864-2.977-7.193-7.296-6.947c-6.399,0.364-9.099,7.2-3.783,11.21
				C309.996,98.543,316.45,96.171,317.286,91.422z"/>
			<path style="fill:none;stroke:#000000;stroke-width:0.75;stroke-miterlimit:10;" d="M306.41,113.108
				c3.908,4.056,7.816,8.111,11.724,12.167"/>
			<path style="fill:none;stroke:#000000;stroke-width:0.75;stroke-miterlimit:10;" d="M316.793,112.257
				c-3.257,4.236-6.514,8.471-9.771,12.706"/>
			<path style="fill:none;stroke:#000000;stroke-width:0.75;stroke-miterlimit:10;" d="M330.047,111.831
				c2.09,3.962,4.179,7.924,6.269,11.887c4.485-6.479,8.971-12.958,13.457-19.438"/>
			<polygon style="fill:#FF6161;" points="337.907,84.274 340.564,88.881 345.866,89.304 342.305,93.255 343.541,98.428
				338.683,96.262 334.145,99.037 334.704,93.747 330.663,90.289 335.866,89.185 			"/>
			<path style="fill:none;stroke:#000000;stroke-miterlimit:10;" d="M347.465,138.264H302.19c-5.234,0-9.478-4.243-9.478-9.478
				c0-17.815-1.646-34.245,2.486-52.098c0.65-2.807,4.507-3.69,6.991-3.69c0,0,45.166,0,45.277,0
				c10.22,0.002,10.97,13.785,11.017,21.162c0.075,11.569-1.541,23.016-1.541,34.627
				C356.943,134.021,352.699,138.264,347.465,138.264z"/>
		</g>
		<path style="fill:none;stroke:#5BA7B5;stroke-width:2;stroke-miterlimit:10;" d="M614.482,90.297
			c1.693,2.296,3.504,5.615,6.182,9.203c3.281-4.835,7.889-11.099,10.187-15.54"/>
		<path style="fill:none;stroke:#5BA7B5;stroke-width:2;stroke-miterlimit:10;" d="M615.139,118.32
			c1.49,3.532,3.82,5.721,5.903,8.94c4.725-6.697,7.597-12.566,11.203-18.028"/>
		<path style="fill:none;stroke:#000000;stroke-miterlimit:10;" d="M630.003,137.83h-15.57c-4.855,0-8.791-3.936-8.791-8.79V86.017
			c0-4.855,3.936-8.791,8.791-8.791h15.57c4.855,0,8.79,3.936,8.79,8.791v43.023C638.794,133.895,634.858,137.83,630.003,137.83z"/>
	</g>
	<g>
		<polygon style="fill:#F7B3B2;" points="490.152,194.884 474.948,196.077 476.599,177.458 490.152,177.458 		"/>
		<g>
			<defs>
				<polygon id="SVGID_00000049215639835566993090000006507211234631345562_" points="490.152,194.884 474.948,196.077
					476.599,177.458 490.152,177.458 				"/>
			</defs>
			<clipPath id="SVGID_00000016796067001166500720000011791483268609626272_">
				<use xlink:href="#SVGID_00000049215639835566993090000006507211234631345562_"  style="overflow:visible;"/>
			</clipPath>
			<path style="clip-path:url(#SVGID_00000016796067001166500720000011791483268609626272_);fill:#1C0C03;" d="M475.566,185.267
				c0.765,1.267,2.412,2.534,3.856,2.817c0.706,0.139,1.481,0.076,2.077-0.328c0.541-0.367,0.875-0.967,1.124-1.571
				c0.144-0.349,0.269-0.724,0.219-1.099c-0.141-1.054-1.088-1.035-1.727-1.58c-0.551-0.47-0.677-1.026-1.353-1.442
				c-1.096-0.675-3.061-1.621-4.254-0.688C474.549,182.125,475.046,184.406,475.566,185.267z"/>
		</g>
		<path style="fill:#F7B3B2;" d="M472.036,172.824c-0.046,0.737-0.076,1.476-0.104,2.211c-0.161,4.152,0.842,8.564,5.036,10.429
			c2.285,1.016,5.037,0.882,7.24-0.302c1.334-0.717,2.453-1.78,3.437-2.932c2.289-2.678,3.978-6.086,2.489-9.547
			c-0.413-0.959-0.956-1.881-1.726-2.585c-1.238-1.132-2.719-1.422-4.223-1.964c-2.261-0.816-6.544-5.175-9.023-3.924
			c-1.007,0.508-1.609,1.568-2.012,2.622C472.421,168.739,472.164,170.776,472.036,172.824z"/>
		<path style="fill:#1C0C03;" d="M500.59,169.95c-0.435-1.324-0.857-2.652-1.495-3.888c-1.421-2.755-4.013-4.928-6.938-5.938
			c-3.017-1.042-7.527-1.565-10.651-0.791c-0.44,0.109-0.878,0.249-1.33,0.262c-0.554,0.017-1.096-0.157-1.649-0.191
			c-1.931-0.119-3.531,1.43-4.718,2.958c-1.202,1.547-2.331,3.063-4.195,3.824c0.923,2.463,10.187,3.501,11.738,1.643
			c0.869,2.529,0.666,5.195,0.8,7.82c0.089,1.753,0.41,3.456,0.197,5.204c-0.212,1.737-0.83,3.555-0.114,5.261
			c0.947,2.258,3.758,3.037,6.206,3.094c5.423,0.124,10.645-1.861,15.704-3.817c0.933-0.361,1.891-0.737,2.622-1.419
			c0.731-0.683,1.192-1.754,0.871-2.702c-0.217-0.642-0.743-1.121-1.228-1.594c-2.252-2.197-4.023-4.884-5.153-7.819
			C501.013,171.229,500.8,170.59,500.59,169.95z"/>
		<path style="fill:#F7B3B2;" d="M481.858,174.161c-4.078,0-4.085,5.695,0,5.695C485.936,179.856,485.943,174.161,481.858,174.161z"
			/>
		<path style="fill:none;stroke:#1C0C03;stroke-miterlimit:10;" d="M481.552,178.466c0.686-0.122,1.3-0.597,1.589-1.232
			s0.245-1.409-0.113-2.007"/>
		<path style="fill:#F7B3B2;" d="M528.583,228.848c-0.485-4.174-2.766-8.164-6.55-10.409c-4.972-2.95-12.136-1.869-15.583,2.772
			c-1.671,2.251-2.404,5.038-3.258,7.708c-1.354,4.236-3.058,8.455-5.242,12.336c-1.672,2.972-3.873,5.182-5.051,8.479
			c-1.532,4.289-2.223,11.583,4.241,11.505c1.873-0.023,3.493-1.237,4.965-2.395c4.862-3.826,9.723-7.653,14.585-11.48
			c3.469-2.73,6.987-5.511,9.566-9.094C528.236,235.52,528.964,232.127,528.583,228.848z"/>
		<path style="fill:#D6A447;" d="M490.472,208.128c5.62,6.622,8.133,13.916,8.662,22.576c0.344,5.636-1.338,8.679,4.18,11.647
			c3.915,2.106,8.342,6.125,13.055,5.137c5.795-1.215,10.677-7.819,12.543-13.057c1.468-4.12,1.422-8.913-0.803-12.678
			c-0.76-1.286-1.747-2.421-2.728-3.548c-4.572-5.251-9.144-10.501-13.716-15.752c-3.821-4.388-9.53-8.754-15.172-10.245
			c-6.523-1.723-13.353-2.547-20.044-1.681c-0.924,0.119-1.88,0.286-2.639,0.826c-0.758,0.541-1.252,1.564-0.904,2.428
			c0.311,0.772,1.15,1.169,1.916,1.495c3.163,1.346,5.887,2.252,8.275,4.654C485.669,202.521,488.091,205.362,490.472,208.128z"/>
		<path style="fill:#F7B3B2;" d="M499.838,415.508c-3.12,3.099-6.966,5.461-11.141,6.842c-1.154,0.382-2.382,0.718-3.258,1.559
			c-1.366,1.31-1.049,3.955,1.062,4.127c0.96,0.078,1.922-0.086,2.868-0.27c3.934-0.767,7.788-1.893,11.58-3.182
			c3.28-1.115,6.287-1.398,9.283-3.315c1.349-0.864,2.479-1.526,2.804-3.095c0.184-0.891-0.271-13.738,0.101-19.176
			c0.411-6.012,1.311-12.126,1.311-18.152c0.388-6.657,0.547-13.34,0.06-19.997c-0.576-7.874-1.582-16.147-6.264-22.504
			c2.657-3.704,2.211-8.803,0.852-13.154c-1.752-5.611-5.176-11.104-10.584-13.41c-5.407-2.306-12.867-0.108-14.682,5.484
			c-1.635,5.038,1.017,11.19,2.17,16.095c1.37,5.826,2.709,11.66,3.953,17.515C492.473,362.735,498.483,410.681,499.838,415.508z"/>
		<path style="fill:#1C0C03;" d="M479.55,429.6c5.653,2.065,12.485,2.267,18.308,0.841c1.83-0.448,3.643-1.066,5.527-1.129
			c1.689-0.056,3.358,0.339,5.043,0.46c2.941,0.212,6.156-0.57,6.262-3.941c0.072-2.303-0.086-5.047-0.983-7.203
			c-0.914-2.198-1.325-1.769-3.692-1.669c-2.834,0.119-5.624,0.891-8.033,2.388c-0.888,0.552-1.809,1.052-2.766,1.483
			c-2.985,1.345-6.195,1.945-9.461,1.867c-1.948-0.046-5.155,1.147-6.978,1.857c-1.152,0.449-2.291,0.996-3.422,1.564
			C477.868,426.865,477.99,429.03,479.55,429.6z"/>
		<path style="fill:#F7B3B2;" d="M445.335,418.31c0.464-0.582,0.861-1.242,1.177-1.985c1.71-4.021,3.267-8.089,4.876-12.151
			c2.579-6.51,6.344-12.642,9.096-19.11c5.443-12.792,9.61-26.315,9.923-40.314c0.073-3.275-0.046-6.654,1.155-9.701
			c0.99-2.51,2.799-4.593,4.514-6.676c5.518-6.7,10.58-14.521,10.629-23.2c0.048-8.68-6.954-17.825-15.601-17.071
			c-5.671,0.495-10.358,5.017-12.662,10.222c-3.647,8.236-4.336,19.037-6.775,27.865c-1.868,6.764-3.82,13.86-4.679,20.837
			c-0.809,6.573-1.267,13.234-2.227,19.824c-2,13.73-4.877,27.332-8.61,40.695c-1.31,4.688-5.799,5.18-10.02,5.891
			c-2.935,0.494-6.066,0.775-8.471,2.529c-0.255,0.186-0.51,0.401-0.628,0.694c-0.257,0.637,0.222,1.331,0.754,1.766
			c1.531,1.252,3.594,1.578,5.552,1.86c2.688,0.387,5.375,0.773,8.063,1.16c2.152,0.309,4.328,0.62,6.492,0.411
			C440.913,421.564,443.599,420.483,445.335,418.31z"/>
		<path style="fill:#993333;" d="M513.718,302.418c-1.279-10.546-6.805-34.02-11.612-43.573c-4.248-8.442-3.412-4.254-5.142-13.545
			c-0.419-2.25-4.368-3.472-5.264-5.579c-6.203-14.576-23.013-4.351-28.579,4.835c-16.069,26.52-22.153,65.771-26.718,95.962
			c26.694,5.515,54.271,4.112,81.492,2.683c-2.199,0.116-3.087-28.408-3.233-30.563C514.43,309.232,514.131,305.818,513.718,302.418
			z"/>
		<path style="fill:#D6A447;" d="M457.074,243.84c0.019-0.588,0.094-1.175,0.219-1.742c1.551-7.035,3.222-12.415,3.841-20.021
			c0.286-3.508-0.932-18.6,0.612-20.242c0.639-0.679,2.853-6.96,3.634-7.547c8.748-6.574,20.645-4.881,29.293,0.963
			c3.051,2.061,8.069,6.27,8.934,10.091c1.251,5.525-2.031,12.73-2.277,18.388c-0.342,7.863,1.863,16.037-0.778,23.451
			c-1.966,5.518-8.244,5.713-13.155,5.814c-7.496,0.155-14.985-0.279-22.402-1.393c-2.051-0.308-4.21-0.718-5.766-2.09
			C457.653,248.125,457.003,245.968,457.074,243.84z"/>
		<path style="fill:#F7B3B2;" d="M429.78,227.728c-6.461-2.277-12.792-4.955-19.146-7.477c-1.833-0.728-3.675-1.46-5.376-2.458
			c-2.273-1.334-4.232-3.109-6.32-4.701c-1.931-1.472-4.14-2.446-5.938-4.061c-1.352-1.214-3.068-3.584-4.654-4.343
			c-0.337-0.161-0.772-0.168-1.059,0.072c-0.732,0.611,0.456,3.034,0.768,3.644c0.829,1.62,1.918,3.097,3.086,4.486
			c0.181,0.216,0.372,0.441,0.436,0.715c0.271,1.161-1.771,1.88-1.537,3.048c0.056,0.28,0.244,0.52,0.3,0.801
			c0.097,0.481-0.205,0.938-0.405,1.387c-0.255,0.574-0.083,1.893,0.144,2.479c0.731,1.891,2.797,2.96,4.454,3.868
			c1.8,0.987,3.279,2.325,4.906,3.617c3.688,2.931,7.56,5.631,11.583,8.083c7.95,4.845,16.491,8.721,25.381,11.489
			c1.859,0.579,3.805,1.116,5.729,0.821c2.423-0.37,4.518-2.067,5.743-4.19c2.907-5.036,1.022-10.185-4.085-12.818
			c-1.351-0.697-2.844-1.06-4.314-1.447C436.201,229.882,432.974,228.854,429.78,227.728z"/>
		<path style="fill:#D6A447;" d="M472.186,207.355c0.022-2.058,0.206-4.15,0.863-6.409c0.839-2.883,0.389-8.438-3.652-8.526
			c-3.12-0.069-5.577,2.529-7.54,4.955c-5.925,7.322-10.238,15.715-17.463,21.801c-2.104,1.773-4.344,3.426-6.089,5.554
			c-4.099,5.001-4.78,12.02-3.247,18.13c1.333,5.315,6.589,9.461,11.966,6.021c6.2-3.966,11.87-8.76,16.812-14.215
			c4.324-4.773,7.433-10.987,8.232-17.408C472.51,213.706,472.151,210.573,472.186,207.355z"/>
		<path style="fill:none;stroke:#000000;stroke-width:0.75;stroke-miterlimit:10;" d="M462.173,237.935
			c6.5-5.013,12.09-11.199,16.438-18.161"/>
		<path style="fill:#1C0C03;" d="M445.086,415.836c-0.219-0.064-0.455-0.135-0.709-0.22c-0.421-0.139-0.837-0.292-1.256-0.437
			c-0.465-0.108-0.933-0.195-1.399-0.256c-2.013-0.265-4.092-0.194-6.098,0.096c-1.865,0.269-3.672,0.817-5.517,1.192
			c-1.727,0.351-3.621,0.622-5.332,0.049c-1.17-0.392-1.635-1.401-2.594-1.922c-0.958-0.52-2.748-0.312-3.868-0.334
			c-2.664-0.053-5.332,0.114-7.968,0.499c-0.667,0.097-1.017,0.869-0.647,1.432c4.893,7.45,14.246,8.969,22.447,9.113
			c1.468,0.026,2.978,0.075,4.322,0.666c1.805,0.795,3.542,2.566,5.399,1.903c1.229-0.439,1.845-1.781,2.331-2.992
			c0.825-2.056,1.517-4.128,2.315-6.191c0.261-0.674,0.363-1.131,0.33-1.463C446.318,416.502,445.724,416.128,445.086,415.836z"/>
		<path style="fill:none;stroke:#000000;stroke-width:0.75;stroke-miterlimit:10;" d="M526.818,230.328
			c-0.74-0.08-1.334,0.914-0.912,1.527c0.421,0.614,1.562,0.417,1.753-0.302"/>
		<path style="fill:none;stroke:#000000;stroke-width:0.75;stroke-miterlimit:10;" d="M501.589,241.54
			c0.142-5.479,1.533-10.847,2.039-16.305c0.506-5.457,0.009-11.316-3.189-15.767"/>
	</g>
	<g>
		<g>
			<g>
				<path style="fill:#D6A447;" d="M679.147,217.687c0.566,0.123,1.303,0.232,1.984,0.334l2.102,0.291l4.231,0.533l0,0l1.359,0.138
					l-0.109,1.335l-4.057,49.62l-2.057-0.154l3.37-49.671l1.249,1.473l0,0l-4.293-0.288l-2.155-0.171
					c-0.735-0.068-1.417-0.121-2.257-0.251L679.147,217.687z"/>
			</g>
			<path style="fill:#1C0C00;" d="M666.756,382.457L666.756,382.457c-2.568-0.162-4.519-2.375-4.356-4.944l9.856-156.094
				c0.162-2.568,2.375-4.519,4.944-4.356l0,0c2.568,0.162,4.519,2.375,4.357,4.944L671.699,378.1
				C671.537,380.668,669.324,382.619,666.756,382.457z"/>
			<path style="fill:#D6A447;" d="M671.821,217.067l-1.758,27.841c-0.055,0.872,0.598,1.627,1.468,1.699l7.994,0.664
				c0.895,0.074,1.676-0.6,1.733-1.496l1.797-28.173c0.057-0.898-0.635-1.667-1.534-1.705l-8.033-0.332
				C672.617,215.529,671.876,216.196,671.821,217.067z"/>
		</g>
		<path style="fill:none;stroke:#1A1926;stroke-width:2;stroke-miterlimit:10;" d="M661.17,327.161
			c0.538-4.879-2.981-9.271-7.86-9.809l0,0c-4.879-0.538-9.271,2.981-9.809,7.86l-3.907,35.426
			c-0.619,5.611,3.428,10.661,9.039,11.28l0,0c5.68,0.627,10.77-3.525,11.298-9.214l2.836-25.71"/>
		<path style="fill:none;stroke:#1A1926;stroke-width:2;stroke-miterlimit:10;" d="M663.353,361.518"/>
		<g>
			<g>
				<g>
					<path style="fill:#C9C8C0;" d="M601.382,299.771l27.183,122.006c0.454,2.037,3.464,1.647,3.385-0.438l-3.955-103.68
						c-0.005-0.138-0.135-0.238-0.27-0.208l-11.156,2.486c-0.12,0.027-0.238-0.049-0.265-0.168l-4.58-20.557L601.382,299.771z"/>
					<path style="fill:#FF6161;" d="M616.528,305.118l-12.38-55.568c-2.365-10.613-12.885-17.299-23.497-14.935l-0.534,0.119
						c-10.597,2.361-17.405,12.978-14.908,23.544c0.043,0.184,0.088,0.369,0.134,0.553c1.999,8.055,7.114,14.918,13.929,19.654
						c1.115,0.775,2.195,1.607,3.222,2.524c4.668,4.167,8.634,9.053,11.743,14.484c2.414,4.218,4.311,8.696,5.973,13.26
						L616.528,305.118z M598.985,253.779c4.227,15.058-2.684,15.996-10.026,17.632c-7.343,1.636-14.758-3.606-16.564-11.708
						c-1.805-8.102,2.684-15.996,10.026-17.632C589.764,240.435,596.741,245.787,598.985,253.779z"/>
				</g>
				<g>
					<path style="fill:#E3E0D1;" d="M627.277,297.492l-3.201,124.957c-0.053,2.086-3.083,2.283-3.406,0.221l-16.067-102.504
						c-0.021-0.137,0.086-0.26,0.225-0.256l11.426,0.293c0.123,0.003,0.225-0.094,0.228-0.216l0.539-21.053L627.277,297.492z"/>
					<path style="fill:#993333;" d="M630.155,306.081c0.753-4.799,1.753-9.558,3.311-14.161c2.006-5.928,4.958-11.485,8.737-16.473
						c0.832-1.098,1.731-2.122,2.677-3.097c5.777-5.958,9.475-13.678,9.887-21.966c0.009-0.19,0.018-0.38,0.025-0.569
						c0.418-10.849-8.306-19.958-19.159-20.236l-0.547-0.014c-10.87-0.278-19.907,8.307-20.185,19.177l-1.458,56.911
						L630.155,306.081z M634.782,237.222c7.52,0.193,13.444,7.076,13.231,15.374c-0.212,8.298-6.481,14.868-14.001,14.676
						c-7.52-0.193-14.483,0.216-13.231-15.374C621.444,243.624,627.262,237.029,634.782,237.222z"/>
				</g>
			</g>
			<path style="fill:#1C0C00;" d="M610.835,331.138c-0.983-3.141,0.766-6.484,3.907-7.467c3.141-0.983,6.484,0.766,7.467,3.907
				c0.983,3.141-0.766,6.484-3.907,7.467C615.161,336.029,611.818,334.279,610.835,331.138z"/>
		</g>
		<path style="fill:#D6A447;" d="M600.763,343.299v106.679c0,1.177,0.907,2.132,2.026,2.132h80.732c1.119,0,2.026-0.954,2.026-2.132
			V343.299c0-1.177-0.907-2.132-2.026-2.132h-80.732C601.67,341.167,600.763,342.122,600.763,343.299z"/>
		<path style="fill:none;stroke:#1A1926;stroke-width:2;stroke-miterlimit:10;" d="M650.478,359.245
			c3.903,0.431,7.416-2.385,7.847-6.288l2.845-25.797"/>
		<path style="fill:none;stroke:#1A1926;stroke-width:2;stroke-miterlimit:10;" d="M647.307,323.128l-3.118,28.27
			c-0.43,3.903,2.385,7.417,6.288,7.847l0,0"/>
	</g>
	<g>
		<g>
			<path style="fill:#1A1926;" d="M554.24,449.888l29.518,1.072c0.552,0.02,0.984,0.484,0.964,1.036
				c-0.019,0.527-0.445,0.943-0.964,0.964l-29.518,1.072c-1.144,0.041-2.106-0.853-2.147-1.997
				c-0.042-1.144,0.852-2.106,1.997-2.147C554.138,449.886,554.192,449.887,554.24,449.888z"/>
		</g>
		<rect x="523.918" y="442.625" style="fill:#FF6161;" width="29.454" height="17.154"/>
		<polygon style="fill:#FF6161;" points="559.605,435.931 551.308,442.968 551.503,459.779 559.437,466.284 		"/>
		<path style="fill:#FF6161;" d="M524.044,461.734h-0.794c-0.483,0-0.874-0.391-0.874-0.874v-19.56c0-0.483,0.391-0.874,0.874-0.874
			h0.794c0.483,0,0.874,0.391,0.874,0.874v19.56C524.918,461.343,524.527,461.734,524.044,461.734z"/>
	</g>
</g>
</svg>
